<?xml version="1.0" encoding="UTF-8"?>
<svg id="katman_2" data-name="katman 2" xmlns="http://www.w3.org/2000/svg" viewBox="0 0 380.12 209.72">
  <defs>
    <style>
      .cls-1 {
        fill: #010101;
      }
    </style>
  </defs>
  <g id="katman_1" data-name="katman 1">
    <g>
      <path class="cls-1" d="M313.36,148.03c-.12.17-.25.35-.38.52l1.8,1.59c.71-.67,1.94-1.83,3.32-3.18-1.53.43-3.12.78-4.74,1.07ZM310.98,132.19c-1.05.38-2.15.68-3.29.9l-4.35,7.79,7.11-7.86c.08-.09.36-.4.8-.94-.08.05-.18.07-.27.11ZM317.25,116.25c-.32-.35-.66-.69-1.01-1-.74,1.94-1.61,4.02-2.61,6.25-.67,1.48-1.4,3.02-2.2,4.62-.89,1.77-1.86,3.61-2.92,5.5l-.82,1.47-4.35,7.79,7.11-7.86c.08-.09.36-.4.8-.94,1.49-1.8,4.79-6.09,7.98-12.24-.36-1.31-1.02-2.5-1.98-3.59ZM313.36,148.03c-.12.17-.25.35-.38.52l1.8,1.59c.71-.67,1.94-1.83,3.32-3.18-1.53.43-3.12.78-4.74,1.07ZM293.49,132.19c-.62-.22-1.19-.46-1.74-.72-.2-.1-.4-.2-.59-.3-1.23,1.7-2.56,3.35-3.95,4.87-.78.86-1.44,1.56-2.45,2.46-3.28,2.92-6.04,4.04-6.7,4.29-.48.19-.85.3-1.17.41-4.17,1.42-7.92,2.42-11.26,3.32-6.5,1.73-10.78,2.88-12.39,5.61-1.07,1.83-1.53,5.03-2.07,8.72-.53,3.68-1.12,7.79-2.4,11.01-.23.59-.48,1.15-.77,1.67l-.29.54c-.04.08-.09.16-.13.24-2.83,5.25-5.89,10.57-18.02,10.26-.28,1.96-1.07,3.54-2.36,4.77-.16.14-.32.29-.5.43,4.32.37,13.58.32,20.74-5.66,1.25-1.03,2.43-2.25,3.51-3.67.22-.28.43-.57.64-.86,8.07-11.25,5.97-20.81,5.69-21.95-.02-.31-.01-2.28,3.77-3.29.9-.25,2.15-.48,3.59-.76,5.34-1.03,13.48-2.58,19.97-7.13,1.84-1.29,3.55-2.83,5.02-4.66,2.26-2.8,4.56-5.73,6.79-8.77-1.02-.21-1.99-.49-2.93-.83ZM378.4,98.77c-.35-.07-8.67-1.71-20.97,8.16-.4-2.01-.81-5.87.11-11.77,1.11-7.07,1.93-17.26,2.38-22.74.13-1.63.24-3.04.28-3.27.17-.56,2.28-5.45,5.14-6.16l3.32-.81-3.1-1.44c-.48-.22-11.5-5.04-24.1,13.94-1.51-1.8-4.64-7.11-5.36-20.61-1.01-18.76.26-29.21.27-29.31l.14-1.13-1.13-.2c-.87-.16-8.53-.88-17.39,18.99-1.71-2.73-4.98-9.06-7.24-20.36-3.12-15.53-2.14-19.14-2.1-19.29l.81-2.77-2.52,1.34c-.52.28-12.69,7.04-14.03,23.84-.74,9.38,1.42,14.88,4.41,22.5,2.31,5.87,5.18,13.17,7.56,24.67.44,2.15.78,4.23,1.03,6.25h.11c1.46,0,2.89.04,4.29.12.54.03,1.07.06,1.6.1-.6-5.98-1.88-13.05-4.13-22.09-5.34-21.43-7.16-28.52-7.48-29.77.08-.77.43-3.67,1.27-6.57,1.37,4.52,4.22,12.92,8.93,22.59l.56,1.14c6.53,13.4,11.3,23.17,9.6,54.15-.06.84-.11,1.69-.16,2.55-.01.02-.87,5.58-4.26,14.43-.74,1.94-1.61,4.02-2.61,6.25-.67,1.48-1.4,3.02-2.2,4.62-.89,1.77-1.86,3.61-2.92,5.5l-.82,1.47-4.35,7.79,7.11-7.86c.08-.09.36-.4.8-.94,1.49-1.8,4.79-6.09,7.98-12.24,2.14-4.14,4.24-9.12,5.71-14.75.4-1.5.75-3.05,1.04-4.65.5-2.71.84-5.55.97-8.49.14-3.2.16-6.24.11-9.1-.2-11.44-1.69-20.15-2.65-25.8-.53-3.04-.94-5.45-.78-6.32.06-.32.12-.68.19-1.05.45-2.61,1.09-6.27,3.36-10.55.03,5.35.36,14.4,2.16,20.02.33,1.04.76,2.25,1.25,3.63,3.38,9.47,9.01,25.34,3.58,42.43-.06.2-.13.4-.2.6-3.62,11.21-8.41,21.58-12.95,29.84,0,.02-.03.04-.03.06-.61,1.11-1.22,2.18-1.81,3.2-2.08,3.58-4.07,6.67-5.82,9.12-.12.17-.25.35-.38.52l1.8,1.59c.71-.67,1.94-1.83,3.32-3.18,2.99-2.94,6.65-6.77,7.11-8.37.33-1.15.76-2.21,1.09-2.93h0c.2-.44.36-.74.45-.87.82-.71,3.14-2.98,3.3-4.47.43-1.35,5.71-11.46,9.12-17.87.08-.14.15-.28.22-.41l.77-1.44-1.12-.21s.01-.03.01-.04c.44-1.17,3-10.86,4.92-18.4.52-2.03.99-3.9,1.37-5.41.31-1.22.54-2.36.76-3.47,1.04-5.12,1.81-8.97,8.74-14.65-1.47,5.71-4.15,16.94-3.68,21.33.78,7.44,1.21,8.65,1.88,8.95.22.32.54.99.48,1.48-.02.15-.07.32-.34.49-1.82,1.19-2.3,1.62-2.42,2.57-.24,1.62-2.41,15.38-8.03,25-6.57,11.21-20.01,31.35-28.71,35.69-7.25,3.61-12.15,4.96-14.23,5.54-.8.21-1.07.28-1.32.44-.28.17-.73.58-1.67,1.47-.35.35-.7.67-.91.85l-5.74,5.01,7-3c.5-.22,2.58-.69,4.58-1.14,1.84-.42,3.93-.89,5.78-1.36,4.61-1.21,20.24-9.63,22.99-13.8,2.4-3.63,4.01-5.46,4.03-5.48l5.41-6.3.06-.11c.16-.29,15.4-28.42,19.47-33.28,2.44-2.9,6.68-5.25,9.58-6.64-2.33,4.39-6.32,12.25-6.82,15.44-.65,4.14-8.49,25.08-15.78,32.15-7.31,7.1-21.03,14.67-21.17,14.75l-.47.26-.13.54c-.33,1.54-1.12,3.1-1.63,3.21-.47.1-1.36.45-3.31,1.24-5.52,2.23-17.02,6.86-23.86,6.45l-.3,2.38c.46.09,11.31,2.07,25.02-4.49,9.41-4.5,17.05-9.38,20.82-11.93-.98,3.07-3.37,8.02-9.05,11.8-8,5.32-23.12,13.94-34.46,11.81-5.71-1.06-9.66-1.1-13.14-1.14-3.41-.03-6.11-.06-9.36-1.08-5.87-1.86-13.54-1.1-14.32-.16l-.51.62.74,1.42.9-.07c1.12.01,12.27,2.27,18.07,3.59,2.17.5,19.69,3.6,28.99,3.05-1.34,1.1-2.51,1.98-3.08,2.28-.27-.07-.56-.05-.84.05-.54.19-.97.7-1.31,1.53-1.2-.3-3.16-.63-5.3-.37-.72.09-1.58.32-2.58.59-3.77,1.04-10.08,2.77-18.33-.99-7.05-3.21-19.97-5.32-28.46-6.45-2.03-.27-3.82-.48-5.2-.63-1.73-.19-2.83-.29-3.04-.31l-5.39-.51,4.67,2.73q.16.1,1.11.36c.27.07.54.15.8.22,1.82.51,3.44.98,4.88,1.42,7.95,2.43,10.44,3.88,11.21,4.57.03.03.05.04.07.07-.76.72-4.28,1.74-7.75,2.2-.11.02-5.61.82-12.51.4-1.95-.11-4.01-.32-6.09-.68-3.11-.52-6.28-1.37-9.19-2.68-.95-.52-2.08-1.14-2.82-1.57l3.96-6.77c-1.04.5-2.22.9-3.5,1.19-1.19.28-2.46.49-3.83.65l-4.2,7.17.93.63c.09.06.42.28.98.61,1.53.9,4.77,2.6,9.5,4.07,1.27.41,2.64.79,4.12,1.13,8.21,1.92,19.57,2.72,33.33-.98l.29-.08.21-.2s2.56-1.83,11.99-.36c10.65,1.67,28.04.79,32.64-1.64.77-.41,1.74-.82,2.86-1.31,4.79-2.05,12-5.14,16.44-13.13,2.33-1.32,16.31-9.54,21.63-19.4,5.55-10.27,18.32-37.49,18.45-37.77l.09-.32c.59-3.8,2.4-14.2,3.86-16.67,1.84-3.16,9.2-14.31,9.28-14.42l.96-1.46-1.72-.37ZM326.48,134.99s.11-.08.23-.17c-.04.05-.12.12-.23.17ZM313.36,148.03c-.12.17-.25.35-.38.52l1.8,1.59c.71-.67,1.94-1.83,3.32-3.18-1.53.43-3.12.78-4.74,1.07ZM317.25,116.25c-.32-.35-.66-.69-1.01-1-.74,1.94-1.61,4.02-2.61,6.25-.67,1.48-1.4,3.02-2.2,4.62-.89,1.77-1.86,3.61-2.92,5.5l-.82,1.47-4.35,7.79,7.11-7.86c.08-.09.36-.4.8-.94,1.49-1.8,4.79-6.09,7.98-12.24-.36-1.31-1.02-2.5-1.98-3.59ZM310.98,132.19c-1.05.38-2.15.68-3.29.9l-4.35,7.79,7.11-7.86c.08-.09.36-.4.8-.94-.08.05-.18.07-.27.11ZM313.36,148.03c-.12.17-.25.35-.38.52l1.8,1.59c.71-.67,1.94-1.83,3.32-3.18-1.53.43-3.12.78-4.74,1.07Z"/>
      <path class="cls-1" d="M67.7,79.82l-23.2,27.85-23.21-27.85H0v59.01h22.27v-30.34l22.27,25.46,22.03-25.32v30.2h22.43v-59.01h-21.3Z"/>
      <path class="cls-1" d="M179.26,93.47c-3.88-4.65-9.24-8.3-16.09-10.93-6.86-2.63-14.59-3.94-23.21-3.94s-16.51,1.31-23.37,3.94c-6.85,2.63-12.22,6.28-16.09,10.93-3.87,4.67-5.81,9.95-5.81,15.85s1.94,11.19,5.81,15.85c3.87,4.66,9.24,8.31,16.09,10.94,6.86,2.63,14.65,3.94,23.37,3.94s16.35-1.31,23.21-3.94c6.85-2.63,12.21-6.28,16.09-10.94,3.87-4.66,5.81-9.94,5.81-15.85s-1.94-11.18-5.81-15.85ZM157.15,116.15c-1.76,2.01-4.16,3.55-7.19,4.63-3.04,1.09-6.37,1.63-10,1.63s-7.11-.54-10.12-1.63c-3.01-1.08-5.39-2.61-7.15-4.59-1.76-1.97-2.64-4.26-2.64-6.87s.88-4.82,2.64-6.82c1.76-2.01,4.14-3.55,7.15-4.64,3.01-1.08,6.38-1.62,10.12-1.62s6.96.54,10,1.62c3.03,1.09,5.43,2.62,7.19,4.6,1.76,1.98,2.64,4.26,2.64,6.86s-.88,4.83-2.64,6.83Z"/>
      <path class="cls-1" d="M186.62,79.82v17.96h24.79v41.05h23.08v-41.05h24.63v-17.96h-72.5Z"/>
      <path class="cls-1" d="M305.91,78.6c-8.69,0-16.44,1.32-23.26,3.94-6.86,2.63-12.22,6.28-16.1,10.93-3.87,4.67-5.81,9.95-5.81,15.85s1.94,11.19,5.81,15.85c2.7,3.24,6.12,6,10.27,8.27,1.8.98,3.75,1.87,5.83,2.67.99.38,2,.74,3.04,1.06.52-.36,1.02-.74,1.52-1.13,1.54-1.23,2.98-2.63,4.26-4.22.09-.12.19-.23.28-.35-.2-.1-.4-.2-.59-.3,2.49-3.42,4.62-7,6.2-9.92-.5-.14-.98-.3-1.46-.47-.96-.34-1.85-.73-2.68-1.17-1.78-.93-3.27-2.07-4.48-3.42-1.76-1.97-2.64-4.26-2.64-6.87s.88-4.82,2.64-6.82c1.77-2.01,4.15-3.55,7.16-4.64,2.98-1.07,6.33-1.61,10.04-1.62.03-.21.06-.42.08-.64.56-4.91.68-10.62-.11-17Z"/>
      <path class="cls-1" d="M311.7,96.15c-.02.19-.05.38-.08.57-.36,2.69-.83,5.35-1.39,8.18-.43,2.23-1.04,4.44-1.8,6.61-1.89-.44-3.91-.66-6.04-.67,1.22-3.17,2.77-8.16,3.55-14.6.03-.21.06-.42.08-.64.56-4.91.68-10.62-.11-17h.11c1.46,0,2.89.04,4.29.12.54.03,1.07.06,1.6.1.67,6.74.46,12.09-.21,17.33Z"/>
      <path class="cls-1" d="M308.43,111.51c-2.67,7.64-7.14,14.85-12.01,21.51-1.02-.21-1.99-.49-2.93-.83-.62-.22-1.19-.46-1.74-.72-.2-.1-.4-.2-.59-.3,2.49-3.42,4.62-7,6.2-9.92,2-3.65,3.18-6.28,3.21-6.36l.05-.12s.79-1.42,1.77-3.93c2.13.01,4.15.23,6.04.67Z"/>
      <path class="cls-1" d="M0,149.49v59.01h22.92v-59.01H0ZM82.42,149.49h-31.22l-28.28,22.65-6.83,5.47,6.83,6.14,27.55,24.75h31.05l-36.28-31.34,37.18-27.67Z"/>
      <path class="cls-1" d="M157.64,163.14c-3.87-4.66-9.24-8.3-16.09-10.93-6.86-2.63-14.59-3.94-23.21-3.94s-16.51,1.31-23.37,3.94c-6.85,2.63-12.22,6.27-16.09,10.93s-5.81,9.95-5.81,15.85,1.94,11.19,5.81,15.85c3.87,4.66,9.24,8.31,16.09,10.94,6.86,2.62,14.65,3.94,23.37,3.94s16.35-1.32,23.21-3.94c6.85-2.63,12.22-6.28,16.09-10.94,3.87-4.66,5.81-9.94,5.81-15.85s-1.94-11.19-5.81-15.85ZM135.53,185.82c-1.76,2.01-4.16,3.55-7.19,4.63-3.04,1.09-6.37,1.63-10,1.63s-7.11-.54-10.12-1.63c-3-1.08-5.39-2.61-7.15-4.59-1.76-1.98-2.64-4.27-2.64-6.87s.88-4.82,2.64-6.82c1.76-2.01,4.15-3.55,7.15-4.64,3.01-1.08,6.38-1.62,10.12-1.62s6.96.54,10,1.62c3.03,1.09,5.43,2.62,7.19,4.59,1.76,1.98,2.64,4.27,2.64,6.87s-.88,4.83-2.64,6.83Z"/>
      <path class="cls-1" d="M169.22,149.49v59.01h22.92v-59.01h-22.92ZM247.74,175.26c-.04-.32-.1-.64-.16-.95-.51-2.84-1.54-5.48-3.08-7.93-.65-1.05-1.4-2.06-2.25-3.03-3.82-4.42-9.06-7.83-15.73-10.24-6.66-2.41-14.11-3.62-22.35-3.62h-22.67v17.15h19.09c4.67,0,8.61.42,11.83,1.26,3.23.84,5.72,2.17,7.48,3.98,1.76,1.82,2.64,4.22,2.64,7.19,0,.67-.04,1.31-.13,1.92-.32,2.25-1.22,4.07-2.71,5.48-.18.17-.37.34-.57.5-.88.74-1.88,1.37-3,1.91-1.2.57-2.55,1.03-4.03,1.37-1.37.32-2.83.56-4.4.74-2.06.24-4.3.36-6.7.36h-19.91v17.15h23c5.97,0,11.52-.62,16.64-1.86,1.1-.27,2.18-.56,3.24-.89.89-.26,1.77-.55,2.63-.87,1.97-.72,3.82-1.52,5.54-2.43.08-.04.16-.08.24-.12,3.99-2.1,7.29-4.7,9.91-7.81.01-.02.03-.03.04-.05.13-.15.25-.31.37-.46.54-.66,1.03-1.34,1.48-2.03.37-.57.71-1.15,1.02-1.74,1.04-1.93,1.78-3.97,2.24-6.13.36-1.71.54-3.5.54-5.36,0-1.19-.08-2.36-.24-3.49Z"/>
      <path class="cls-1" d="M291.16,131.17c-1.38,1.47-2.77,2.95-4.16,4.44-1.37,1.47-2.73,2.93-4.08,4.39,1.33.55,2.61,1.02,3.11.54.97-.92,6.65-4.45,7.06-6.1.41-1.65.68-2.59.29-3.02-.39-.44-2.23-.26-2.23-.26Z"/>
    </g>
  </g>
</svg>